HIERARCHY
ROOT root
{
	OFFSET 0.000000 0.000000 0.000000
	CHANNELS 6 Xposition Yposition Zposition Zrotation Yrotation Xrotation
	JOINT lhip
	{
		OFFSET 0.058581 -0.082280 -0.017664
		CHANNELS 3 Zrotation Yrotation Xrotation
		JOINT lknee
		{
			OFFSET 0.043451 -0.386469 0.008037
			CHANNELS 3 Zrotation Yrotation Xrotation
			JOINT lankle
			{
				OFFSET -0.014790 -0.426874 -0.037428
				CHANNELS 3 Zrotation Yrotation Xrotation
				JOINT ltoe
				{
					OFFSET 0.041054 -0.060286 0.122042
					CHANNELS 3 Zrotation Yrotation Xrotation
					End Site
					{
						OFFSET 0.000000 0.000000 0.000000
					}
				}
			}
		}
	}
	JOINT rhip
	{
		OFFSET -0.060310 -0.090513 -0.013543
		CHANNELS 3 Zrotation Yrotation Xrotation
		JOINT rknee
		{
			OFFSET -0.043257 -0.383688 -0.004843
			CHANNELS 3 Zrotation Yrotation Xrotation
			JOINT rankle
			{
				OFFSET 0.019056 -0.420046 -0.034562
				CHANNELS 3 Zrotation Yrotation Xrotation
				JOINT rtoe
				{
					OFFSET -0.034840 -0.062106 0.130323
					CHANNELS 3 Zrotation Yrotation Xrotation
					End Site
					{
						OFFSET 0.000000 0.000000 0.000000
					}
				}
			}
		}
	}
	JOINT lowerback
	{
		OFFSET 0.004439 0.124404 -0.038385
		CHANNELS 3 Zrotation Yrotation Xrotation
		JOINT upperback
		{
			OFFSET 0.004488 0.137956 0.026820
			CHANNELS 3 Zrotation Yrotation Xrotation
			JOINT chest
			{
				OFFSET -0.002265 0.056032 0.002855
				CHANNELS 3 Zrotation Yrotation Xrotation
				JOINT lowerneck
				{
					OFFSET -0.013390 0.211636 -0.033468
					CHANNELS 3 Zrotation Yrotation Xrotation
					JOINT upperneck
					{
						OFFSET 0.010113 0.088937 0.050410
						CHANNELS 3 Zrotation Yrotation Xrotation
						End Site
						{
							OFFSET 0.000000 0.000000 0.000000
						}
					}
				}
				JOINT lclavicle
				{
					OFFSET 0.071702 0.114000 -0.018898
					CHANNELS 3 Zrotation Yrotation Xrotation
					JOINT lshoulder
					{
						OFFSET 0.122921 0.045205 -0.019046
						CHANNELS 3 Zrotation Yrotation Xrotation
						JOINT lelbow
						{
							OFFSET 0.255332 -0.015649 -0.022946
							CHANNELS 3 Zrotation Yrotation Xrotation
							JOINT lwrist
							{
								OFFSET 0.265709 0.012698 -0.007375
								CHANNELS 3 Zrotation Yrotation Xrotation
								End Site
								{
									OFFSET 0.000000 0.000000 0.000000
								}
							}
						}
					}
				}
				JOINT rclavicle
				{
					OFFSET -0.082954 0.112472 -0.023707
					CHANNELS 3 Zrotation Yrotation Xrotation
					JOINT rshoulder
					{
						OFFSET -0.113228 0.046853 -0.008472
						CHANNELS 3 Zrotation Yrotation Xrotation
						JOINT relbow
						{
							OFFSET -0.260127 -0.014369 -0.031269
							CHANNELS 3 Zrotation Yrotation Xrotation
							JOINT rwrist
							{
								OFFSET -0.269108 0.006794 -0.006027
								CHANNELS 3 Zrotation Yrotation Xrotation
								End Site
								{
									OFFSET 0.000000 0.000000 0.000000
								}
							}
						}
					}
				}
			}
		}
	}
}
MOTION
Frames: 11
Frame Time: 0.033333
0.004867 -1.161051 0.954020 174.508666 -5.902266 102.496048 7.174169 -8.561766 -60.579791 -8.375584 15.492476 66.961016 7.977475 5.704464 -9.601890 0.000000 -0.000000 0.000000 -8.571894 -7.677674 14.946771 1.783942 8.396420 26.145967 10.994822 -0.372370 2.759234 0.000000 -0.000000 0.000000 -8.413926 20.146337 10.559477 3.086018 -4.026247 -1.730017 -0.514624 2.858434 4.968355 -1.051158 -6.146832 -7.330457 6.776708 -13.673383 -16.352353 -7.714436 7.705686 16.658742 -33.834441 36.983967 18.200724 -95.528146 -59.142582 107.901903 36.503060 -5.465412 -19.440724 11.941032 2.046123 -7.218637 70.372331 7.791653 24.721053 -169.817103 57.296061 -153.008502 -29.882831 14.762072 -10.679273 
0.007903 -1.011261 0.962774 176.903739 -4.809147 101.345975 5.744281 -9.154479 -53.734046 -9.509706 10.072375 40.535925 6.781299 7.462721 -9.179497 0.000000 -0.000000 0.000000 -6.454125 -6.793405 19.043883 1.058100 6.337910 37.052492 9.093519 -3.305957 -0.627637 0.000000 -0.000000 0.000000 -7.705479 17.358874 11.123038 2.021900 -3.459075 -1.327407 -0.302490 2.719806 4.523357 -0.896555 -8.172910 -7.216366 7.715527 -11.910030 -15.277965 -11.769525 9.698372 14.968179 -38.335465 36.677682 16.113853 -102.999190 -65.400010 116.391530 37.615541 -5.844513 -18.756016 12.704185 1.427767 -5.625359 68.419983 1.174282 22.731341 -176.773906 66.984598 -162.328687 -23.097343 13.999841 -11.984977 
0.010108 -0.864473 0.965082 -179.885721 -3.932732 99.928373 1.370871 -8.961345 -44.023667 -8.897618 3.384946 20.991111 2.195413 7.799183 -8.509290 0.000000 -0.000000 0.000000 -4.408322 -7.896704 18.718364 -1.658497 1.636065 54.578905 9.142944 -8.066541 -4.225545 0.000000 -0.000000 0.000000 -6.587162 13.752150 12.841247 0.551769 -3.192223 -0.888830 -0.204278 2.120094 3.805936 0.502491 -10.547979 -8.317768 8.601778 -9.844772 -12.962306 -18.986496 10.242019 11.819078 -41.957615 32.732761 15.195885 -109.109006 -72.810572 124.553910 38.027162 -6.389553 -15.580548 16.134597 1.140664 -3.493308 67.334635 -5.832009 19.174146 176.500273 82.850609 -173.425538 -18.317297 12.306910 -10.775622 
0.009495 -0.683585 0.953960 -175.100634 -3.622330 98.594891 -2.919129 -9.792837 -34.905160 -9.252474 3.843924 21.324958 4.098106 9.152321 -8.073869 0.000000 -0.000000 0.000000 -3.104983 -7.569692 11.426678 -4.712801 -4.651105 82.098204 4.880649 -12.804107 -5.575535 0.000000 -0.000000 0.000000 -5.223415 8.710416 14.915452 -1.013659 -3.150058 -0.798102 -1.576369 0.202591 2.579297 3.059159 -14.843508 -8.309687 10.424061 -5.485505 -11.020187 -29.918606 8.302342 9.647909 -43.077152 24.276914 15.330121 -136.979409 -81.459803 153.734813 36.997657 -6.728585 -12.450813 22.182448 0.628474 -1.094090 65.009041 -12.519049 15.054432 1.052213 73.334403 6.497457 -18.906850 11.521560 -6.799131 
0.009155 -0.578682 0.940216 -172.597675 -3.337891 97.860005 -4.688951 -11.486430 -30.309264 -11.265801 1.152388 28.155718 16.132423 15.574685 -15.321755 0.000000 -0.000000 0.000000 -2.489866 -6.338089 2.975579 -1.757304 -7.043627 98.790137 2.433655 -13.873103 -4.546557 0.000000 -0.000000 0.000000 -5.028250 5.258851 17.187007 -1.446752 -2.871009 -3.117580 -2.295499 -1.180427 4.202587 5.164642 -15.743296 -10.895792 11.119093 -2.889193 -8.348128 -33.760481 6.528342 7.601395 -44.683095 16.639246 16.605735 -163.776241 -83.039126 -178.222422 39.946135 -5.376339 -10.956990 23.857533 0.254815 -0.712038 64.034568 -14.994050 14.559185 -2.165269 58.272944 2.417726 -19.940555 12.232481 0.346893 
0.007763 -0.443197 0.925806 -169.544084 -2.386015 96.729672 -5.439990 -11.803411 -24.392828 -11.753297 -0.414164 38.400067 15.634418 20.250061 -24.966134 0.000000 -0.000000 0.000000 -2.753623 -3.309729 -13.591359 -0.802261 -10.533235 116.524956 2.795537 -10.212155 -7.093589 0.000000 -0.000000 0.000000 -4.389977 0.458573 19.802114 -0.914654 -2.942231 -2.550433 -2.242530 -2.631370 4.964387 6.364436 -12.798810 -14.851757 10.682942 -2.704143 -7.939649 -35.724281 1.309114 4.374598 -49.879221 4.659669 18.382689 164.695453 -81.754762 -145.927312 40.413237 -5.835303 -9.416524 24.440853 0.612309 1.904324 59.573943 -18.532195 13.854997 -0.988418 48.812894 5.662454 -23.632266 12.769350 2.297663 
0.004309 -0.299293 0.924877 -168.662395 -0.956293 95.644131 -5.269362 -7.030692 -9.236745 -12.568989 -8.141369 33.142290 13.704101 21.480640 -29.217828 0.000000 -0.000000 0.000000 -4.313097 -0.775557 -31.566566 -0.540021 -11.637403 121.336488 3.111297 -9.226556 -9.876910 0.000000 -0.000000 0.000000 -3.463050 -4.632368 20.573597 -0.508509 -1.177986 -3.095338 -1.614895 -4.259062 6.037635 4.573618 -10.631198 -14.425681 8.994533 -1.146255 -7.521477 -33.899411 -1.451789 2.123505 -55.691988 -7.335333 19.723941 157.867013 -77.198937 -136.878161 37.055224 -7.920188 -7.093066 21.724154 -2.528610 4.293085 51.680406 -24.694764 15.343533 12.121940 54.184748 20.942186 -24.375470 13.542026 -2.310594 
-0.000491 -0.146679 0.937933 -166.796868 0.568282 96.814119 -1.387320 -3.597343 3.837273 -12.203940 -16.213986 25.991422 6.596426 17.134368 -23.165591 0.000000 -0.000000 0.000000 -7.049404 -0.187143 -47.567907 -1.769333 -13.203865 113.119201 3.226972 -9.976919 -10.364505 0.000000 -0.000000 0.000000 -0.888027 -11.501691 17.261160 -0.227957 -0.398951 -4.471171 -1.783675 -6.625045 7.361008 2.074602 -8.889930 -12.548493 6.691797 3.044090 -4.307686 -31.076272 0.183240 0.053031 -59.416900 -12.993279 21.783499 158.170180 -68.862619 -137.354244 39.085309 -10.212854 -5.766898 16.809007 -6.507795 5.605564 42.296290 -28.642474 19.622129 34.660701 59.726149 43.500515 -24.747694 13.413408 -6.046927 
-0.002732 0.013819 0.961278 -165.720782 2.277151 98.356060 4.973596 -1.767591 14.239485 -9.629924 -19.091299 17.714319 -5.619958 10.566637 -2.593514 0.000000 -0.000000 0.000000 -9.155893 1.150138 -55.781650 -2.416400 -16.019061 94.121933 3.917990 -7.955335 -10.453819 0.000000 -0.000000 0.000000 2.503679 -16.707210 11.476498 0.260353 -0.086376 -2.077452 -1.666338 -8.069439 6.475877 -0.196278 -6.564082 -8.773314 5.209423 7.268206 -6.231918 -28.700773 3.693326 -0.794402 -59.969386 -13.574219 23.219835 162.459849 -61.964177 -142.853959 42.145164 -11.717205 -7.130502 12.352997 -9.640109 8.675102 36.903186 -30.474072 21.538024 56.986623 63.820560 63.137750 -26.814150 11.174079 -13.638520 
-0.007384 0.209928 0.984729 -167.598747 2.924101 99.523631 6.728204 0.412507 21.433803 -5.007899 -17.681463 19.536070 -2.684504 16.093932 2.012653 0.000000 -0.000000 0.000000 -8.961636 2.914540 -57.003769 2.997181 -13.558797 60.697284 4.963667 -9.097624 -9.200652 0.000000 -0.000000 0.000000 5.845511 -19.083144 5.833058 -0.157881 0.511016 -1.333235 -1.535110 -8.186890 7.414293 -2.955949 -8.027852 -4.024728 3.949972 13.082532 -10.229380 -25.090719 8.614923 0.384413 -58.681498 -11.683878 20.926228 172.232053 -59.254726 -153.162208 43.152706 -10.904750 -7.103500 5.453088 -13.364013 11.568457 38.619430 -31.648031 20.401817 81.341501 66.967514 88.020427 -25.272581 11.503332 -16.726678 
-0.010760 0.363729 0.990732 -169.794075 1.744283 99.297643 4.561901 -0.105367 23.043970 -5.889419 -12.256170 33.077047 -1.974018 16.382646 1.843304 0.000000 -0.000000 0.000000 -8.302249 3.878102 -50.802162 3.474180 -9.552017 32.471307 7.691493 -8.831223 -7.793995 0.000000 -0.000000 0.000000 5.677046 -16.497667 4.831625 0.173932 -0.379620 -1.506235 -1.848464 -8.360742 8.531976 -2.531024 -5.930924 -4.301114 2.630497 13.605460 -11.048385 -23.832523 11.787455 1.720950 -56.391899 -7.502743 18.864073 179.675954 -62.804276 -159.908792 41.891890 -12.120195 -7.816552 5.833252 -16.339690 10.956296 40.699226 -31.981085 20.697760 99.751016 71.740673 109.208680 -25.858287 11.828884 -18.179330 
